<?xml version="1.0" encoding="UTF-8" standalone="no"?>
<!-- Created with Inkscape (http://www.inkscape.org/) -->

<svg
   version="1.1"
   id="svg80584"
   width="1200"
   height="1200"
   viewBox="0 0 1200 1200"
   sodipodi:docname="sleeping-dog-publicdomain.svg"
   inkscape:version="1.2 (dc2aedaf03, 2022-05-15)"
   xmlns:inkscape="http://www.inkscape.org/namespaces/inkscape"
   xmlns:sodipodi="http://sodipodi.sourceforge.net/DTD/sodipodi-0.dtd"
   xmlns="http://www.w3.org/2000/svg"
   xmlns:svg="http://www.w3.org/2000/svg">
  <defs
     id="defs80588">
    <clipPath
       clipPathUnits="userSpaceOnUse"
       id="clipPath80600">
      <path
         d="M 0,900 H 900 V 0 H 0 Z"
         id="path80598" />
    </clipPath>
  </defs>
  <sodipodi:namedview
     id="namedview80586"
     pagecolor="#ffffff"
     bordercolor="#000000"
     borderopacity="0.25"
     inkscape:showpageshadow="2"
     inkscape:pageopacity="0.0"
     inkscape:pagecheckerboard="0"
     inkscape:deskcolor="#d1d1d1"
     showgrid="false"
     inkscape:zoom="0.6975"
     inkscape:cx="600"
     inkscape:cy="600.71685"
     inkscape:window-width="1920"
     inkscape:window-height="1017"
     inkscape:window-x="-8"
     inkscape:window-y="-8"
     inkscape:window-maximized="1"
     inkscape:current-layer="g80592">
    <inkscape:page
       x="0"
       y="0"
       id="page80590"
       width="1200"
       height="1200" />
  </sodipodi:namedview>
  <g
     id="g80592"
     inkscape:groupmode="layer"
     inkscape:label="Page 1"
     transform="matrix(1.3333333,0,0,-1.3333333,0,1200)">
    <g
       id="g80594">
      <g
         id="g80596"
         clip-path="url(#clipPath80600)">
        <g
           id="g80602"
           transform="translate(455.6475,155.4268)">
          <path
             d="m 0,0 c 228.607,0 415.066,64.233 415.066,142.99 0,78.755 -186.459,142.987 -415.066,142.987 -228.611,0 -415.067,-64.232 -415.067,-142.987 C -415.067,64.233 -228.611,0 0,0"
             style="fill:#cfe35d;fill-opacity:1;fill-rule:evenodd;stroke:none"
             id="path80604" />
        </g>
        <g
           id="g80606"
           transform="translate(443.3823,642.2314)">
          <path
             d="m 0,0 c 161.876,0 358.901,-85.222 358.901,-190.35 0,-105.125 -197.025,-190.345 -358.902,-190.345 -161.874,0 -293.101,85.22 -293.101,190.345 C -293.102,-85.222 -161.875,0 0,0"
             style="fill:#b57f48;fill-opacity:1;fill-rule:evenodd;stroke:none"
             id="path80608" />
        </g>
        <g
           id="g80610"
           transform="translate(540.085,316.1816)">
          <path
             d="M 0,0 H 184.484 V -80.166 H -42.351 c -10.317,0 -18.757,8.444 -18.757,18.758 v 0.3 C -61.108,-27.453 -33.658,0 0,0"
             style="fill:#996633;fill-opacity:1;fill-rule:evenodd;stroke:none"
             id="path80612" />
        </g>
        <g
           id="g80614"
           transform="translate(713.7568,621.6235)">
          <path
             d="M 0,0 C 14.319,12.858 23.683,29.769 25.742,52.652 37.482,35.079 43.08,17.958 35.811,1.788 64.895,12.85 87.717,34.194 105.069,64.532 105.479,33.413 98.366,4.573 75.176,-18.984 82.763,-21.97 89.724,-22.729 95.508,-19.277 91.885,-37.343 83.358,-47.142 72.247,-52.589 48.165,-35.059 24.082,-17.53 0,0"
             style="fill:#b57f48;fill-opacity:1;fill-rule:evenodd;stroke:none"
             id="path80616" />
        </g>
        <g
           id="g80618"
           transform="translate(752.2744,603.2075)">
          <path
             d="m 0,0 c 59.428,-41.411 74.031,-123.155 32.617,-182.583 -41.41,-59.424 -162.729,-130.817 -222.156,-89.406 -59.425,41.414 -34.453,179.947 6.958,239.373 C -141.17,26.808 -59.425,41.412 0,0"
             style="fill:#996633;fill-opacity:1;fill-rule:evenodd;stroke:none"
             id="path80620" />
        </g>
        <g
           id="g80622"
           transform="translate(528.2881,404.5449)">
          <path
             d="m 0,0 c -5.081,56.796 14.756,127.801 41.405,166.046 25.562,36.681 66.492,56.273 108.055,56.166 C 96.516,143.626 58.378,117.023 15.891,22.297 11.734,13.029 6.282,5.642 0,0"
             style="fill:#8f5c29;fill-opacity:1;fill-rule:evenodd;stroke:none"
             id="path80624" />
        </g>
        <g
           id="g80626"
           transform="translate(527.4941,423.332)">
          <path
             d="m 0,0 c 0.047,36.987 9.025,77.525 22.54,110.238 21.29,13.63 44.933,23.203 68.927,26.667 56.536,8.163 88.093,-74.096 22.024,-102.61 C 91.102,24.637 71.728,42.324 47.637,38.558 27.453,35.41 20.184,-3.142 0,0"
             style="fill:#d99450;fill-opacity:1;fill-rule:evenodd;stroke:none"
             id="path80628" />
        </g>
        <g
           id="g80630"
           transform="translate(799.9619,542.0103)">
          <path
             d="m 0,0 c 14.746,-39.083 10.616,-84.525 -15.07,-121.385 -24.696,-35.438 -77.812,-75.129 -129.27,-92.615 2.693,4.874 6.164,9.66 10.51,14.254 C -62.478,-124.327 -52.443,-78.922 0,0"
             style="fill:#8f5c29;fill-opacity:1;fill-rule:evenodd;stroke:none"
             id="path80632" />
        </g>
        <g
           id="g80634"
           transform="translate(799.9678,542.019)">
          <path
             d="m 0,0 c 35.282,-34.371 54.218,-254.785 -36.107,-297.257 -72.268,-33.982 -134.782,38.046 -88.514,91.627 C -56.769,-127.044 -48.806,-81.231 0,0"
             style="fill:#693e14;fill-opacity:1;fill-rule:evenodd;stroke:none"
             id="path80636" />
        </g>
        <g
           id="g80638"
           transform="translate(604.001,390.4355)">
          <path
             d="M 0,0 C 12.072,-8.411 24.15,-11.938 15.739,-24.008 7.325,-36.08 -9.276,-39.045 -21.349,-30.635 -33.418,-22.224 -36.386,-5.621 -27.972,6.451 -19.561,18.524 -12.069,8.414 0,0"
             style="fill:#1a0f04;fill-opacity:1;fill-rule:evenodd;stroke:none"
             id="path80640" />
        </g>
        <g
           id="g80642"
           transform="translate(549.6455,409.2256)">
          <path
             d="M 0,0 C -2.588,-25.852 9.215,-44.577 36.383,-45.208 43.083,-71.879 68.8,-75.636 90.459,-66.779 69.617,-81.73 38.563,-79.774 29.736,-53.548 0.649,-51.082 -6.928,-24.948 0,0"
             style="fill:#1a0f04;fill-opacity:1;fill-rule:evenodd;stroke:none"
             id="path80644" />
        </g>
        <g
           id="g80646"
           transform="translate(617.2793,542.6978)">
          <path
             d="M 0,0 C -4.986,-25.473 9.197,-42.032 39.244,-51.214 16.393,-37.086 5.059,-19.49 0,0"
             style="fill:#693e14;fill-opacity:1;fill-rule:evenodd;stroke:none"
             id="path80648" />
        </g>
        <g
           id="g80650"
           transform="translate(740.0215,457.1646)">
          <path
             d="M 0,0 C -22.17,-13.501 -42.615,-5.926 -61.634,19.081 -40.466,2.535 -20.033,-2.004 0,0"
             style="fill:#693e14;fill-opacity:1;fill-rule:evenodd;stroke:none"
             id="path80652" />
        </g>
        <g
           id="g80654"
           transform="translate(530.7695,463.853)">
          <path
             d="m 0,0 0.32,2.033 z m -3.275,-40.524 v 0.086 l 0.003,0.747 0.014,1.631 0.012,0.963 c 0.009,0.685 0.023,1.373 0.041,2.063 l 0.027,0.985 0.044,1.42 0.057,1.536 0.068,1.565 0.05,0.99 c 0.036,0.697 0.071,1.394 0.113,2.093 l 0.059,0.949 0.096,1.435 0.074,1.067 0.153,2.052 0.086,1.055 0.149,1.705 0.103,1.094 0.163,1.711 0.111,1.058 c 0.071,0.688 0.145,1.375 0.221,2.069 l 0.119,1.032 0.172,1.464 0.121,0.999 0.277,2.155 0.115,0.866 0.246,1.794 0.208,1.444 0.195,1.331 L 0,0 C 0.104,0.676 0.211,1.354 0.32,2.033 L 0.495,3.101 0.744,4.595 0.899,5.502 C 1.024,6.22 1.15,6.937 1.278,7.654 l 0.187,1.015 0.35,1.867 0.192,1.009 0.309,1.577 0.231,1.159 0.032,0.151 0.362,1.767 0.03,0.13 0.186,0.878 0.363,1.69 0.177,0.806 0.465,2.081 0.24,1.047 0.395,1.675 0.288,1.198 0.391,1.607 0.252,1.019 c 0.174,0.692 0.347,1.379 0.525,2.067 l 0.216,0.839 0.391,1.489 0.35,1.303 0.472,1.725 0.237,0.858 c 0.207,0.735 0.412,1.467 0.622,2.2 l 0.036,0.129 0.146,0.494 0.468,1.6 0.285,0.964 0.598,1.978 0.321,1.043 0.432,1.386 0.3,0.946 c 0.216,0.681 0.436,1.36 0.658,2.038 l 0.222,0.677 c 0.226,0.687 0.451,1.372 0.683,2.053 l 0.266,0.781 0.525,1.532 0.323,0.929 c 0.231,0.665 0.466,1.33 0.703,1.988 l 0.243,0.673 0.578,1.592 0.332,0.897 0.688,1.832 0.266,0.704 c 0.267,0.694 0.535,1.39 0.804,2.078 l 0.192,0.492 0.664,1.659 0.3,0.748 0.694,1.694 c 21.29,13.629 44.929,23.202 68.923,26.666 3.374,0.487 6.656,0.643 9.837,0.517 C 69.579,60.856 44.456,29.457 17.874,-27.275 11.854,-35.351 5.512,-41.891 -3.275,-40.524"
             style="fill:#e8a25d;fill-opacity:1;fill-rule:evenodd;stroke:none"
             id="path80656" />
        </g>
        <g
           id="g80658"
           transform="translate(677.7539,626.7676)">
          <path
             d="m 0,0 c -44.459,21.199 -257.795,-37.349 -266.367,-136.795 -6.86,-79.56 82.356,-113.269 116.608,-51.313 C -99.531,-97.244 -59.307,-73.913 0,0"
             style="fill:#693e14;fill-opacity:1;fill-rule:evenodd;stroke:none"
             id="path80660" />
        </g>
        <g
           id="g80662"
           transform="translate(742.2061,594.1187)">
          <path
             d="m 0,0 c 27.029,-18.836 34.358,-55.036 23.431,-70.719 -10.932,-15.681 -35.975,-4.904 -63.004,13.932 -27.029,18.838 -45.813,38.6 -34.882,54.282 C -63.527,13.177 -27.029,18.838 0,0"
             style="fill:#b57f48;fill-opacity:1;fill-rule:evenodd;stroke:none"
             id="path80664" />
        </g>
        <g
           id="g80666"
           transform="translate(123.7661,376.9609)">
          <path
             d="m 0,0 c -34.366,194.306 425.141,210.18 259.546,-16.036 -6.541,-8.918 -7.416,-20.044 -2.325,-29.863 5.09,-9.814 14.66,-15.518 25.713,-15.325 l 25.481,0.445 c 40.892,0.712 50.483,-22.772 45.422,-57.344 -1.932,-13.198 -13.068,-22.822 -26.406,-22.822 H 93.765 c -19.134,0 -35.203,13.234 -38.864,32.016 -1.731,8.885 -0.423,17.661 3.309,25.206 3.062,6.184 3.394,12.644 0.981,19.114 -2.407,6.463 -6.889,11.131 -13.253,13.803 C 19.913,-39.881 3.754,-21.225 0,0"
             style="fill:#996633;fill-opacity:1;fill-rule:evenodd;stroke:none"
             id="path80668" />
        </g>
        <g
           id="g80670"
           transform="translate(123.7661,376.9609)">
          <path
             d="M 0,0 C -8.961,50.664 15.688,89.168 54.048,114.44 V -56.285 c -2.215,2.306 -4.928,4.144 -8.11,5.479 C 19.913,-39.881 3.754,-21.225 0,0"
             style="fill:#996633;fill-opacity:1;fill-rule:evenodd;stroke:none"
             id="path80672" />
        </g>
        <g
           id="g80674"
           transform="translate(145.2935,340.9424)">
          <path
             d="m 0,0 c -3.655,-15.686 -4.442,-30.696 -1.255,-42.958 2.474,-9.522 7.786,-17.385 16.715,-22.087 8.082,-4.258 19.274,-6.611 34.148,-6.41 l 104.52,1.417 c 16.571,0.196 30.163,-13.08 30.356,-29.65 0.193,-16.569 -13.08,-30.16 -29.65,-30.355 l -104.52,-1.417 c -25.532,-0.344 -46.294,4.512 -62.858,13.234 -25.371,13.362 -40.211,34.729 -46.833,60.207 -5.839,22.467 -4.777,47.844 1.27,72.955 8.647,35.9 27.822,72.351 51.34,98.576 l 4.29,4.785 C -19.176,96.074 -27.282,68.556 -21.527,36.018 -19.143,22.532 -11.749,10.086 0,0"
             style="fill:#693e14;fill-opacity:1;fill-rule:evenodd;stroke:none"
             id="path80676" />
        </g>
      </g>
    </g>
  </g>
</svg>
